<svg xmlns="http://www.w3.org/2000/svg" xmlns:xlink="http://www.w3.org/1999/xlink" width="256" zoomAndPan="magnify" viewBox="0 0 192 199.92" height="256" preserveAspectRatio="xMidYMid meet" version="1.0"><defs><clipPath id="1e89ccb6be"><path d="M 5.011719 4.976562 L 186.980469 4.976562 L 186.980469 186.941406 L 5.011719 186.941406 Z M 5.011719 4.976562 " clip-rule="nonzero"/></clipPath><clipPath id="6c9661dff1"><path d="M 95.996094 4.976562 C 45.746094 4.976562 5.011719 45.710938 5.011719 95.957031 C 5.011719 146.207031 45.746094 186.941406 95.996094 186.941406 C 146.246094 186.941406 186.980469 146.207031 186.980469 95.957031 C 186.980469 45.710938 146.246094 4.976562 95.996094 4.976562 Z M 95.996094 4.976562 " clip-rule="nonzero"/></clipPath></defs><g clip-path="url(#1e89ccb6be)"><g clip-path="url(#6c9661dff1)"><path stroke-linecap="butt" transform="matrix(0.7497, 0, 0, 0.7497, 5.013294, 4.974894)" fill="none" stroke-linejoin="miter" d="M 121.358941 0.00222609 C 54.332132 0.00222609 -0.00210064 54.336459 -0.00210064 121.358057 C -0.00210064 188.384867 54.332132 242.719099 121.358941 242.719099 C 188.38575 242.719099 242.719983 188.384867 242.719983 121.358057 C 242.719983 54.336459 188.38575 0.00222609 121.358941 0.00222609 Z M 121.358941 0.00222609 " stroke="#000000" stroke-width="8" stroke-opacity="1" stroke-miterlimit="4"/></g></g></svg>